# xmcd
#
# Track frame offsets:
#	150
#	28411
#	30209
#	42737
#	62558
#	82845
#	97697
#	113693
#	132640
#	145985
#	160145
#	172448
#	188317
#	205256
#	217489
#	235219
#
# Disc length: 3423 seconds
#
# Revision: 1
# Processed by: cddbd v1.5.2PL0 Copyright (c) Steve Scherf et al.
# Submitted via: audiograbber 1.83.01
#
DISCID=e30d5d10
DTITLE=The Bosshoss - Rodeo Radio
DYEAR=2006
DGENRE=Country
TTITLE0=Intro
TTITLE1=Rodeo Radio
TTITLE2=Ring, Ring, Ring
TTITLE3=My Favorite Game
TTITLE4=I Say A Little Prayer
TTITLE5=I'm On A High
TTITLE6=Hell Yeah
TTITLE7=Hot Stuff
TTITLE8=Rodeo Queen
TTITLE9=It's Not Unusual
TTITLE10=Shake A Leg
TTITLE11=Mary Me
TTITLE12=Jesus Built My Hotrod
TTITLE13=Upside Down
TTITLE14=Ca Plane Pour Moi
TTITLE15=You'll Never Walk Alone
EXTD=
EXTT0=
EXTT1=
EXTT2=
EXTT3=
EXTT4=
EXTT5=
EXTT6=
EXTT7=
EXTT8=
EXTT9=
EXTT10=
EXTT11=
EXTT12=
EXTT13=
EXTT14=
EXTT15=
PLAYORDER=
